<svg width="64" height="64" viewBox="0 0 32 32" xmlns="http://www.w3.org/2000/svg" clip-rule="evenodd" version="1.1">
  <g>
    <path opacity="0.973" d="m2.03691,-0.05257c9.3333,0 18.6667,0 28,0c0.3333,1 1,1.66667 2,2c0,9.3333 0,18.6667 0,28c-1,0.3333 -1.6667,1 -2,2c-9.3333,0 -18.6667,0 -28,0c-0.33333,-1 -1,-1.6667 -2,-2c0,-9.3333 0,-18.6667 0,-28c1,-0.33333 1.66667,-1 2,-2z" fill="#fef100"/>
    <path d="m4.5,4.5c1.33333,0 2.66667,0 4,0c0,1.33333 0,2.66667 0,4c-1.33333,0 -2.66667,0 -4,0c0,-1.33333 0,-2.66667 0,-4z" fill="#8d5514"/>
    <path d="m22.5,4.5c1.3333,0 2.6667,0 4,0c0,1.33333 0,2.66667 0,4c-1.3333,0 -2.6667,0 -4,0c0,-1.33333 0,-2.66667 0,-4z" fill="#8e5514"/>
    <path d="m5.5,16.5c0,1 0,2 0,3c1,0 2,0 3,0c0,2.6667 0,5.3333 0,8c-2.33333,0 -4.66667,0 -7,0c0,-3.6667 0,-7.3333 0,-11c1.33333,0 2.66667,0 4,0z" fill="#000000"/>
    <path d="m25.5,16.5c0,1 0,2 0,3c-1,0 -2,0 -3,0c0,-1 0,-2 0,-3c1,0 2,0 3,0z" fill="#8efffd"/>
    <path d="m25.5,16.5c1.3333,0 2.6667,0 4,0c0,3.6667 0,7.3333 0,11c-2.3333,0 -4.6667,0 -7,0c0,-2.6667 0,-5.3333 0,-8c1,0 2,0 3,0c0,-1 0,-2 0,-3z" fill="#000000"/>
    <path d="m5.5,16.5c1,0 2,0 3,0c0,1 0,2 0,3c0,-1 0,-2 0,-3c-1,0 -2,0 -3,0z" fill="#8ffffd"/>
    <path d="m12.5,26.5c2,0 4,0 6,0c0,1 0,2 0,3c-2,0 -4,0 -6,0c0,-1 0,-2 0,-3z" fill="#936d0c"/>
    <ellipse ry="2.21477" rx="1.85682" cy="2.18792" cx="1.83893" fill="#fef100"/>
    <ellipse ry="0.13423" rx="0.17897" cy="2.79195" cx="1.95078" fill="#fef100"/>
    <ellipse ry="2.21477" rx="1.85682" cy="2.23266" cx="30.11633" fill="#fef100"/>
    <ellipse ry="2.21477" rx="1.85682" cy="29.79418" cx="1.88367" fill="#fef100"/>
    <ellipse ry="2.21477" rx="1.85682" cy="29.83893" cx="30.02685" fill="#fef100"/>
    <path d="m8.50604,16.5c0,1 0,2 0,3c-1,0 -2,0 -3,0c0,-1 0,-2 0,-3c1,0 2,0 3,0z" fill="#8efffd"/>
  </g>
</svg>